# xmcd CD database file
#
# Track frame offsets:
#	187
#	15935
#	31775
#	44810
#	63342
#	81157
#	95040
#	109335
#	122372
#	138162
#
# Disc length: 2088 seconds
#
# Revision: 2
# Processed by: cddbd v1.4PL0 Copyright (c) Steve Scherf et al.
# Submitted via: CDex 1.50beta10
#
DISCID=7b08260a
DTITLE=Lari White - Lead Me Not
DYEAR=1993
DGENRE=Country
TTITLE0=Itty Bitty Little Single Solitary Piece O' My Heart
TTITLE1=Just Thinking
TTITLE2=Lay Around And Love On You
TTITLE3=Lead Me Not
TTITLE4=Made To Be Broken
TTITLE5=What A Woman Wants
TTITLE6=Anything Goes
TTITLE7=Where The Lights Are Low
TTITLE8=Don't Leave Me Lonely
TTITLE9=Good Good Love
EXTD=YEAR: 1993
EXTT0=
EXTT1=
EXTT2=
EXTT3=
EXTT4=
EXTT5=
EXTT6=
EXTT7=
EXTT8=
EXTT9=
PLAYORDER=
